# xmcd
#
# Track frame offsets: 
#        150
#        16649
#        26369
#        49231
#        64343
#        75223
#        114333
#        147984
#        176708
#        193444
#        210107
#        230381
#        251960
#        278574
#        292512
#        308837
#        328169
#        339188
#
# Disc length: 4767 seconds
#
# Revision: 0
# Processed by: cddbd v1.5.2PL0 Copyright (c) Steve Scherf et al.
# Submitted via: ExactAudioCopyFreeDBPlugin 1.0
#
DISCID=f1129d12
DTITLE=Eugene Chadbourne - The Divine (Deceased)
DYEAR=2016
DGENRE=Country
TTITLE0=The Look Of Strumpf
TTITLE1=Aleu Cha Salt Peanuts
TTITLE2=Old Dog
TTITLE3=Compared To What
TTITLE4=The Shreeve
TTITLE5=Dear Lord
TTITLE6=Monks Dream
TTITLE7=One More Road To Cross
TTITLE8=The Way I Am
TTITLE9=Lick My Decals Off
TTITLE10=Drive On
TTITLE11=Happy New Year
TTITLE12=If I Could Only Fly
TTITLE13=Hurdy Gurdy Man
TTITLE14=Satellites Are Spinning
TTITLE15=Ride My See Saw
TTITLE16=No Reason To Quit
TTITLE17=Runnin Kind
EXTD=
EXTT0=
EXTT1=
EXTT2=
EXTT3=
EXTT4=
EXTT5=
EXTT6=
EXTT7=
EXTT8=
EXTT9=
EXTT10=
EXTT11=
EXTT12=
EXTT13=
EXTT14=
EXTT15=
EXTT16=
EXTT17=
PLAYORDER=
